<svg xmlns="http://www.w3.org/2000/svg" viewBox="0 0 492.34 194.66"><defs><style>.a{fill:#e8e8e8;}.b{fill:#f7941e;}</style></defs><title>logo</title><path class="a" d="M46.32,0.55H58l13,34,13.1-34H95.8l-17,42.56L95.67,83.5,128.75,0h13.51L101.32,97.84H90.56L71.13,51.69,51.55,97.87H40.8L0,0H13.37L46.59,83.53,63.27,43.11Z" transform="translate(-0.04 0.03)"/><path class="a" d="M233.78,0V97.87h-12.4V53.35h-53.9V97.87H155V0h12.41V42.32h53.9V0h12.43Z" transform="translate(-0.04 0.03)"/><path class="a" d="M323.66,86.84v11H257.21V0h65.2V11H269.62V42.7h45.9V53.11h-45.9V86.88h54Z" transform="translate(-0.04 0.03)"/><path class="a" d="M407.74,86.84v11H341.3V0h65.2V11H353.7V42.7h45.9V53.11H353.7V86.88h54Z" transform="translate(-0.04 0.03)"/><path class="a" d="M425.38,97.87V0h12.41V86.84h54.59v11h-67v0Z" transform="translate(-0.04 0.03)"/><path class="b" d="M62.41,97.87L96,179.39l31.55-80.5H140.4l-39.1,95.74H90.79L51.55,97.87H62.41Z" transform="translate(-0.04 0.03)"/><path class="b" d="M136.87,193.86l39.38-95.75h10l39.24,95.74h-13l-11.33-28H161l-11.19,28h-13Zm44.36-81.75-17.8,44.23h35.06Z" transform="translate(-0.04 0.03)"/><path class="b" d="M273.6,183.27q8.36,0,13.89-3.24a25.62,25.62,0,0,0,8.83-8.43A34.67,34.67,0,0,0,301,159.73a68.36,68.36,0,0,0,1.35-13.55V97.78h12.14v48.41a74,74,0,0,1-2.22,18.41,43.92,43.92,0,0,1-7.08,15.3,34.2,34.2,0,0,1-12.61,10.45q-7.76,3.84-18.81,3.84-11.46,0-19.28-4a35,35,0,0,1-12.61-10.72A43.5,43.5,0,0,1,235,164.1a76.12,76.12,0,0,1-2.09-17.87V97.78H245v48.41A66.43,66.43,0,0,0,246.46,160a34.89,34.89,0,0,0,4.72,11.8,25.4,25.4,0,0,0,8.76,8.29Q265.38,183.27,273.6,183.27Z" transform="translate(-0.04 0.03)"/><path class="b" d="M335.89,193.24V97.5H348v84.95h53.39v10.79H335.89Z" transform="translate(-0.04 0.03)"/><path class="b" d="M469.79,108.29h-33v84.95H424.62V108.29h-33V97.5h78.21v10.79h0Z" transform="translate(-0.04 0.03)"/></svg>