<svg xmlns="http://www.w3.org/2000/svg" viewBox="0 0 300 300"><defs><style>.a{fill:#517fa4;}.b{fill:#fff;}</style></defs><title>instagram</title><rect class="a" width="300" height="300" rx="85.83" ry="85.83"/><path class="b" d="M207.82,59.18H92.18a33.1,33.1,0,0,0-33,33V207.82a33.1,33.1,0,0,0,33,33H207.82a33.1,33.1,0,0,0,33-33V92.18A33.1,33.1,0,0,0,207.82,59.18ZM189.3,80.24h30v30h-30v-30ZM150,117.7A32.3,32.3,0,1,1,117.7,150,32.3,32.3,0,0,1,150,117.7Zm72.56,88.53a17.4,17.4,0,0,1-17.35,17.35H94.32A17.4,17.4,0,0,1,77,206.23v-74h26.33a50,50,0,1,0,93.41,0h25.85v74Z"/></svg>