<?xml version="1.0" encoding="utf-8"?>
<!-- Generator: Adobe Illustrator 19.2.1, SVG Export Plug-In . SVG Version: 6.00 Build 0)  -->
<svg version="1.1" id="Layer_1" xmlns="http://www.w3.org/2000/svg" xmlns:xlink="http://www.w3.org/1999/xlink" x="0px" y="0px"
	 viewBox="0 0 300 300" style="enable-background:new 0 0 300 300;" xml:space="preserve">
<style type="text/css">
	.st0{fill:#FFFFFF;}
</style>
<title>instagram</title>
<path class="st0" d="M241,7H59C30.3,7.1,7.1,30.3,7,59V241c0.1,28.7,23.3,51.9,52,52H241c28.7-0.1,51.9-23.3,52-52V59
	C292.9,30.3,269.7,7.1,241,7z M211.9,40.2h47.2v47.2h-47.2V40.2z M150,99.1c28.1,0,50.9,22.8,50.9,50.9c0,28.1-22.8,50.9-50.9,50.9
	S99.1,178.1,99.1,150S121.9,99.1,150,99.1C150,99.1,150,99.1,150,99.1z M264.2,238.5c0,15.1-12.2,27.3-27.3,27.3H62.3
	c-15.1-0.1-27.2-12.3-27.3-27.3V122h41.5c-15.5,40.6,4.8,86.1,45.4,101.6s86.1-4.8,101.6-45.4c6.9-18.1,6.9-38.1,0-56.2h40.7
	L264.2,238.5L264.2,238.5z"/>
</svg>
