<svg xmlns="http://www.w3.org/2000/svg" viewBox="0 0 300 300"><defs><style>.a{fill:#00aced;}.b{fill:#fff;}</style></defs><title>twitter</title><rect class="a" width="300" height="300" rx="85.83" ry="85.83"/><path class="b" d="M241.25,83.25s18-12.25,21.25-26.5c0,0-17.75,9.75-31.5,12,0,0-12-16.75-36.75-16.25S154,72.25,150,84.25s-3.5,21.5-1.75,29c0,0-38-1.5-68-21.5S47.25,62,47.25,62,24.5,97.75,61.75,127.25c0,0-14-.5-21.38-6,0,0-1.62,38.75,37.88,48,0,0-6.75,4-20.75,2,0,0,10.5,32.75,44.25,33,0,0-22.75,25.25-71.25,20.75,0,0,51.75,37.75,119.5,15.25s87.5-87.5,87.5-87.5,10.25-34,7-51.75c0,0,16.75-11,24.5-25C269,76,253.25,83,241.25,83.25Z"/></svg>