<?xml version="1.0" encoding="utf-8"?>
<!-- Generator: Adobe Illustrator 19.2.1, SVG Export Plug-In . SVG Version: 6.00 Build 0)  -->
<svg version="1.1" id="Layer_1" xmlns="http://www.w3.org/2000/svg" xmlns:xlink="http://www.w3.org/1999/xlink" x="0px" y="0px"
	 viewBox="0 0 300 300" style="enable-background:new 0 0 300 300;" xml:space="preserve">
<style type="text/css">
	.st0{fill:#FFFFFF;}
</style>
<title>twitter</title>
<path class="st0" d="M261.2,68.7c0,0,21.9-14.9,25.9-32.3c0,0-21.6,11.9-38.4,14.6c0,0-14.6-20.4-44.8-19.8s-49,24.1-53.9,38.7
	s-4.3,26.2-2.1,35.3c0,0-46.3-1.8-82.8-26.2S24.9,42.8,24.9,42.8s-27.7,43.5,17.7,79.5c0,0-17.1-0.6-26-7.3c0,0-2,47.2,46.1,58.5
	c0,0-8.2,4.9-25.3,2.4c0,0,12.8,39.9,53.9,40.2c0,0-27.7,30.8-86.8,25.3c0,0,63,46,145.6,18.6s106.6-106.6,106.6-106.6
	s12.5-41.4,8.5-63c0,0,20.4-13.4,29.8-30.5C295,59.9,275.8,68.4,261.2,68.7z"/>
</svg>
